# xmcd
#
# Track frame offsets:
#	150
#	28652
#	53600
#	64760
#	79864
#	99165
#	112638
#	124551
#	146830
#	165825
#	181592
#	199080
#	214655
#	235051
#	245958
#	270773
#
# Disc length: 3810
#
# Revision: 2
# Processed by: cddbd v1.5.1PL0 Copyright (c) Steve Scherf et al.
# Submitted via: ExactAudioCopy v0.90b4
# Normalized: r1:TDELIM( - )
#
DISCID=c50ee010
DTITLE=Various Artist - From latin to jazz dance vol. 4
DYEAR=2001
DGENRE=Jazz
TTITLE0=Dizzy Gillespie - Manteca
TTITLE1=Kenny Burrell and Jimmy Smith - Fever
TTITLE2=Mark Murphy - Milestones
TTITLE3=Lalo Schifrin and Bob Brookmeyer - Just one of those things
TTITLE4=Johnny Hodges and Wild Bill Davis - Thinghs ain't what they used to be
TTITLE5=Sophia Loren and Peter Sellers - Goodness gracious me
TTITLE6=M. Norman Orchestra - Dr. No 007 Soundtrack - Kingston calypso
TTITLE7=Jimmy Smith - Who's afraid of Virginia Woolf pt.2
TTITLE8=James Moody - Mambo with Moody
TTITLE9=Bossa tres - Nao me diga adeus
TTITLE10=Cipo and His Authentic Rythm Group - Cai cai
TTITLE11=King Pleasure - Jazz jump
TTITLE12=Ted Curson - Fire down below
TTITLE13=Booker T and The Mg's - Soul dressing
TTITLE14=Don Wilkerson - Dem tambourines
TTITLE15=Hank Marr - The squash
EXTD=YEAR: 2001
EXTT0=
EXTT1=
EXTT2=
EXTT3=
EXTT4=
EXTT5=
EXTT6=
EXTT7=
EXTT8=
EXTT9=
EXTT10=
EXTT11=
EXTT12=
EXTT13=
EXTT14=
EXTT15=
PLAYORDER=
